<svg width="16" height="17" viewBox="0 0 16 17" fill="none" xmlns="http://www.w3.org/2000/svg">
<g clip-path="url(#clip0_7_23194)">
<mask id="mask0_7_23194" style="mask-type:alpha" maskUnits="userSpaceOnUse" x="0" y="0" width="16" height="17">
<rect y="0.5" width="16" height="16" fill="#FFF"/>
</mask>
<g mask="url(#mask0_7_23194)">
<path d="M3.03592 14.1666C2.8761 14.1265 2.7291 14.0393 2.59491 13.9051C2.46073 13.7709 2.37355 13.6239 2.33337 13.4641L12.9641 2.83334C13.1376 2.88035 13.2863 2.96753 13.4103 3.09488C13.5342 3.22223 13.6231 3.36924 13.6769 3.53589L3.03592 14.1666ZM2.33337 9.90894V8.50384L8.00387 2.83334H9.40897L2.33337 9.90894ZM2.33337 4.94869V4.03848C2.33337 3.70172 2.45004 3.41668 2.68337 3.18334C2.91671 2.95001 3.20175 2.83334 3.53851 2.83334H4.44872L2.33337 4.94869ZM11.5513 14.1666L13.6667 12.0513V12.9615C13.6667 13.2983 13.55 13.5833 13.3167 13.8166C13.0833 14.05 12.7983 14.1666 12.4615 14.1666H11.5513ZM6.59107 14.1666L13.6667 7.09104V8.49614L7.99617 14.1666H6.59107Z" fill="#FFF"/>
</g>
</g>
<defs>
<clipPath id="clip0_7_23194">
<rect width="16" height="16" fill="white" transform="translate(0 0.5)"/>
</clipPath>
</defs>
</svg>
