<svg width="36" height="36" viewBox="0 0 36 36" fill="none" xmlns="http://www.w3.org/2000/svg">
<mask id="mask0_9732_7899" style="mask-type:alpha" maskUnits="userSpaceOnUse" x="0" y="0" width="36" height="36">
<rect width="36" height="36" fill="#D9D9D9"/>
</mask>
<g mask="url(#mask0_9732_7899)">
<circle cx="18" cy="18" r="18" fill="white"/>
<path d="M16.4795 26.9841H19.6905V16.2335H16.4795V26.9841ZM17.9966 13.0468C18.4896 13.0468 18.9028 12.8829 19.2362 12.5551C19.5696 12.2273 19.7364 11.8211 19.7364 11.3365C19.7364 10.8298 19.5697 10.4083 19.2363 10.0718C18.9029 9.73532 18.4898 9.56708 17.997 9.56708C17.4989 9.56708 17.0843 9.73532 16.7532 10.0718C16.4221 10.4083 16.2566 10.8287 16.2566 11.3329C16.2566 11.8205 16.4233 12.228 16.7569 12.5555C17.0904 12.8831 17.5036 13.0468 17.9966 13.0468ZM18.0053 36C15.5143 36 13.1768 35.5286 10.9927 34.5858C8.80858 33.643 6.90183 32.357 5.27244 30.7276C3.64305 29.0982 2.35697 27.191 1.4142 25.0061C0.4714 22.8212 0 20.4824 0 17.9898C0 15.4971 0.4714 13.158 1.4142 10.9724C2.35697 8.78684 3.64268 6.88415 5.27134 5.26434C6.89999 3.64454 8.80695 2.36221 10.9922 1.41734C13.1775 0.472446 15.5166 0 18.0097 0C20.5027 0 22.8423 0.472254 25.0284 1.41677C27.2145 2.36131 29.1173 3.64317 30.7368 5.26235C32.3562 6.88151 33.6383 8.78554 34.583 10.9745C35.5277 13.1634 36 15.5038 36 17.9957C36 20.4873 35.5276 22.8251 34.5827 25.0092C33.6378 27.1932 32.3555 29.0978 30.7357 30.723C29.1159 32.3482 27.2119 33.634 25.0239 34.5804C22.8358 35.5268 20.4963 36 18.0053 36ZM18.0112 32.6479C22.0836 32.6479 25.5399 31.2242 28.3803 28.377C31.2206 25.5298 32.6408 22.067 32.6408 17.9888C32.6408 13.9164 31.2225 10.4601 28.3858 7.61971C25.5491 4.77936 22.0848 3.35918 17.9929 3.35918C13.9281 3.35918 10.4718 4.77752 7.62391 7.61418C4.77607 10.4509 3.35215 13.9152 3.35215 18.0071C3.35215 22.0719 4.77577 25.5282 7.62303 28.3761C10.4702 31.2239 13.933 32.6479 18.0112 32.6479Z" fill="black"/>
</g>
</svg>
