<svg width="44" height="44" viewBox="0 0 44 44" fill="none" xmlns="http://www.w3.org/2000/svg">
<path d="M37 38.8911H32.8141V31.1197H37V32.121H33.9387V34.3415H36.8126V35.3319H33.9387V37.8789H37V38.8911Z" fill="#fff"/>
<path d="M31.464 36.7905C31.464 37.2549 31.3564 37.6503 31.1412 37.9769C30.926 38.3034 30.6171 38.5574 30.2145 38.7388C29.8118 38.9129 29.3329 39 28.7775 39C28.5068 39 28.2465 38.9819 27.9966 38.9456C27.7466 38.9166 27.5141 38.873 27.2989 38.815C27.0837 38.7569 26.8928 38.6844 26.7262 38.5973V37.4871C27.0039 37.6177 27.3301 37.7374 27.705 37.8463C28.0799 37.9478 28.4617 37.9986 28.8504 37.9986C29.1836 37.9986 29.4613 37.9515 29.6834 37.8571C29.9056 37.7628 30.0722 37.6322 30.1832 37.4653C30.2943 37.2984 30.3498 37.1025 30.3498 36.8776C30.3498 36.6381 30.2908 36.4386 30.1728 36.2789C30.0617 36.112 29.8847 35.9596 29.6418 35.8218C29.4057 35.6766 29.0864 35.5243 28.6838 35.3646C28.4061 35.2558 28.1527 35.1361 27.9237 35.0054C27.7015 34.8676 27.5037 34.7079 27.3301 34.5265C27.1635 34.3451 27.0351 34.1347 26.9449 33.8952C26.8546 33.6558 26.8095 33.3764 26.8095 33.0572C26.8095 32.629 26.9102 32.2626 27.1115 31.9578C27.3197 31.6531 27.6043 31.4209 27.9653 31.2612C28.3263 31.0943 28.7463 31.0109 29.2253 31.0109C29.6279 31.0109 29.9993 31.0544 30.3394 31.1415C30.6865 31.2213 31.0162 31.3338 31.3286 31.4789L30.9746 32.4476C30.69 32.3243 30.4019 32.2227 30.1103 32.1429C29.8188 32.063 29.5133 32.0231 29.194 32.0231C28.9163 32.0231 28.6838 32.0667 28.4964 32.1538C28.3089 32.2408 28.1666 32.3606 28.0694 32.5129C27.9792 32.6653 27.9341 32.8431 27.9341 33.0463C27.9341 33.2857 27.9861 33.4853 28.0903 33.6449C28.1944 33.8045 28.361 33.9533 28.5901 34.0912C28.8192 34.2218 29.1211 34.3669 29.496 34.5265C29.9125 34.6934 30.2665 34.8748 30.5581 35.0708C30.8566 35.2667 31.0822 35.5025 31.2349 35.7782C31.3876 36.0467 31.464 36.3841 31.464 36.7905Z" fill="#fff"/>
<path d="M25.6856 34.9946C25.6856 35.5968 25.6127 36.1447 25.4669 36.6381C25.3281 37.1243 25.1129 37.5451 24.8213 37.9007C24.5367 38.2562 24.1757 38.5283 23.7384 38.717C23.308 38.9057 22.8047 39 22.2286 39C21.6385 39 21.1248 38.9057 20.6875 38.717C20.2571 38.5211 19.8961 38.249 19.6045 37.9007C19.3199 37.5451 19.1082 37.1206 18.9694 36.6272C18.8305 36.1338 18.7611 35.5859 18.7611 34.9837C18.7611 34.1855 18.8861 33.4889 19.136 32.8939C19.3859 32.2989 19.7677 31.8345 20.2814 31.5007C20.802 31.1669 21.4545 31 22.239 31C23.0026 31 23.6377 31.1669 24.1445 31.5007C24.6582 31.8272 25.0435 32.2916 25.3003 32.8939C25.5572 33.4889 25.6856 34.1891 25.6856 34.9946ZM19.9482 34.9946C19.9482 35.6186 20.028 36.1555 20.1877 36.6054C20.3473 37.0481 20.5972 37.3927 20.9374 37.6394C21.2775 37.8789 21.7079 37.9986 22.2286 37.9986C22.7561 37.9986 23.1865 37.8789 23.5197 37.6394C23.8529 37.3927 24.0994 37.0481 24.259 36.6054C24.4187 36.1555 24.4985 35.6186 24.4985 34.9946C24.4985 34.0585 24.318 33.3292 23.9571 32.8068C23.603 32.2771 23.0303 32.0122 22.239 32.0122C21.7114 32.0122 21.2775 32.132 20.9374 32.3714C20.5972 32.6109 20.3473 32.9519 20.1877 33.3946C20.028 33.8372 19.9482 34.3705 19.9482 34.9946Z" fill="#fff"/>
<path d="M13.8491 38.8911V31.1197H14.9737V37.8789H18.1496V38.8911H13.8491Z" fill="#fff"/>
<path d="M10.5397 32.0231C10.1718 32.0231 9.84207 32.0921 9.55051 32.2299C9.25896 32.3606 9.00905 32.5565 8.8008 32.8177C8.59948 33.0789 8.44329 33.3946 8.33222 33.7646C8.22809 34.1347 8.17603 34.5519 8.17603 35.0163C8.17603 35.6259 8.2628 36.1556 8.43635 36.6054C8.60989 37.0481 8.87021 37.3891 9.21731 37.6286C9.5644 37.868 10.0017 37.9878 10.5293 37.9878C10.8486 37.9878 11.1541 37.9587 11.4456 37.9007C11.7441 37.8354 12.0461 37.7519 12.3515 37.6503V38.6626C12.06 38.7787 11.7615 38.8621 11.456 38.9129C11.1506 38.971 10.7966 39 10.3939 39C9.63729 39 9.00558 38.8367 8.49883 38.5102C7.99901 38.1837 7.62415 37.7193 7.37425 37.117C7.12434 36.5147 6.99939 35.8109 6.99939 35.0054C6.99939 34.4177 7.07575 33.8807 7.22847 33.3946C7.38813 32.9011 7.61721 32.4767 7.91571 32.1211C8.21421 31.7655 8.58213 31.4934 9.01946 31.3048C9.46374 31.1089 9.97397 31.0109 10.5501 31.0109C10.925 31.0109 11.2929 31.0544 11.6539 31.1415C12.0149 31.2213 12.3411 31.3374 12.6327 31.4898L12.2162 32.4694C11.9732 32.3533 11.7094 32.2517 11.4248 32.1646C11.1471 32.0703 10.8521 32.0231 10.5397 32.0231Z" fill="#fff"/>
<path d="M12.8947 26L11 24.1053L20.1053 15L11 5.89474L12.8947 4L22 13.1053L31.1053 4L33 5.89474L23.8947 15L33 24.1053L31.1053 26L22 16.8947L12.8947 26Z" fill="#fff"/>
</svg>
