<svg width="18" height="18" viewBox="0 0 18 18" fill="none" xmlns="http://www.w3.org/2000/svg">
<path d="M1.55382 17.5C1.31409 17.4397 1.09358 17.3089 0.8923 17.1077C0.691033 16.9064 0.560267 16.6859 0.5 16.4461L16.4461 0.5C16.7064 0.570517 16.9294 0.701284 17.1153 0.8923C17.3012 1.08333 17.4346 1.30384 17.5153 1.55383L1.55382 17.5ZM0.5 11.1134V9.00575L9.00575 0.5H11.1134L0.5 11.1134ZM0.5 3.67303V2.3077C0.5 1.80257 0.675 1.375 1.025 1.025C1.375 0.675 1.80257 0.5 2.3077 0.5H3.67302L0.5 3.67303ZM14.3269 17.5L17.5 14.3269V15.6923C17.5 16.1974 17.325 16.625 16.975 16.975C16.625 17.325 16.1974 17.5 15.6922 17.5H14.3269ZM6.88655 17.5L17.5 6.88655V8.9942L8.9942 17.5H6.88655Z" fill="#FFF"/>
</svg>
