<svg width="24" height="24" viewBox="0 0 24 24" fill="none" xmlns="http://www.w3.org/2000/svg">
<path d="M4.5 6.5H6.5V13.6C6.5 14.65 6.83333 15.5625 7.5 16.3375C8.16667 17.1125 9 17.5 10 17.5C11 17.5 11.8333 17.1125 12.5 16.3375C13.1667 15.5625 13.5 14.65 13.5 13.6V7.3L10.9 9.9L9.5 8.5L14.5 3.5L19.5 8.5L18.1 9.9L15.5 7.3V13.6C15.5 15.2167 14.975 16.6042 13.925 17.7625C12.875 18.9208 11.5667 19.5 10 19.5C8.43333 19.5 7.125 18.9208 6.075 17.7625C5.025 16.6042 4.5 15.2167 4.5 13.6V6.5Z" fill="#fff"/>
</svg>
