<svg width="24" height="24" viewBox="0 0 24 24" fill="none" xmlns="http://www.w3.org/2000/svg">
<path d="M5.8 20C5.305 20 4.88125 19.824 4.52875 19.4719C4.17625 19.1199 4 18.6966 4 18.2022V5.61798C4 5.1236 4.17625 4.70037 4.52875 4.34831C4.88125 3.99625 5.305 3.82022 5.8 3.82022H13.8325L12.0325 5.61798H5.8V18.2022H18.4V11.9551L20.2 10.1573V18.2022C20.2 18.6966 20.0238 19.1199 19.6713 19.4719C19.3188 19.824 18.895 20 18.4 20H5.8ZM9.4 14.6067V10.7865L17.6575 2.53933C17.8375 2.35955 18.04 2.22472 18.265 2.13483C18.49 2.04494 18.715 2 18.94 2C19.18 2 19.4088 2.04494 19.6263 2.13483C19.8438 2.22472 20.0425 2.35955 20.2225 2.53933L21.4825 3.82022C21.6475 4 21.775 4.1985 21.865 4.41573C21.955 4.63296 22 4.85393 22 5.07865C22 5.30337 21.9587 5.52434 21.8763 5.74157C21.7938 5.9588 21.6625 6.1573 21.4825 6.33708L13.225 14.6067H9.4ZM11.2 12.809H12.46L17.68 7.59551L17.05 6.96629L16.3975 6.33708L11.2 11.5281V12.809Z" fill="#FFF"/>
</svg>
