<svg width="24" height="24" viewBox="0 0 24 24" fill="none" xmlns="http://www.w3.org/2000/svg">
<path d="M12.0136 20.855C11.6035 20.855 11.2526 20.7102 10.9609 20.4207C10.6693 20.1311 10.5234 19.7831 10.5234 19.3765C10.5234 18.9855 10.6676 18.6383 10.9559 18.335C11.2443 18.0317 11.5909 17.88 11.9958 17.88C12.4142 17.88 12.7651 18.0318 13.0484 18.3354C13.3318 18.639 13.4734 18.989 13.4734 19.3854C13.4734 19.7818 13.3327 20.1258 13.0511 20.4175C12.7695 20.7092 12.4237 20.855 12.0136 20.855ZM12.0136 13.48C11.6035 13.48 11.2526 13.3358 10.9609 13.0475C10.6693 12.7592 10.5234 12.4125 10.5234 12.0077C10.5234 11.5892 10.6676 11.2383 10.9559 10.955C11.2443 10.6717 11.5909 10.53 11.9958 10.53C12.4142 10.53 12.7651 10.6708 13.0484 10.9523C13.3318 11.2339 13.4734 11.5798 13.4734 11.9899C13.4734 12.4 13.3327 12.7508 13.0511 13.0425C12.7695 13.3342 12.4237 13.48 12.0136 13.48ZM12.0136 6.13C11.6035 6.13 11.2526 5.9827 10.9609 5.68808C10.6693 5.39347 10.5234 5.0393 10.5234 4.62558C10.5234 4.21187 10.6676 3.85917 10.9559 3.5675C11.2443 3.27583 11.5909 3.13 11.9958 3.13C12.4142 3.13 12.7651 3.27702 13.0484 3.57105C13.3318 3.86507 13.4734 4.21893 13.4734 4.63265C13.4734 5.04637 13.3327 5.39936 13.0511 5.69163C12.7695 5.98388 12.4237 6.13 12.0136 6.13Z" fill="black"/>
</svg>
