<svg width="48" height="48" viewBox="0 0 48 48" fill="none" xmlns="http://www.w3.org/2000/svg">
<path d="M48 24C48 37.2548 37.2548 48 24 48C10.7452 48 0 37.2548 0 24C0 10.7452 10.7452 0 24 0C37.2548 0 48 10.7452 48 24ZM4.8 24C4.8 34.6039 13.3961 43.2 24 43.2C34.6039 43.2 43.2 34.6039 43.2 24C43.2 13.3961 34.6039 4.8 24 4.8C13.3961 4.8 4.8 13.3961 4.8 24Z" fill="#4979F5"/>
<path d="M23.9997 2.40004C23.9997 1.07456 25.0768 -0.0123873 26.3957 0.119942C29.3523 0.416602 32.2354 1.26055 34.8954 2.61589C38.2701 4.33535 41.1899 6.82908 43.4161 9.8932C45.6423 12.9573 47.1117 16.5048 47.7042 20.2456C48.2967 23.9864 47.9954 27.8144 46.825 31.4164C45.6546 35.0185 43.6484 38.2925 40.9702 40.9706C38.2921 43.6487 35.0181 45.655 31.4161 46.8254C27.814 47.9958 23.9861 48.2971 20.2452 47.7046C17.2966 47.2375 14.4681 46.2257 11.9017 44.7278C10.757 44.0597 10.5244 42.5472 11.3035 41.4748C12.0826 40.4025 13.5777 40.1797 14.7389 40.819C16.6796 41.8876 18.796 42.6152 20.9961 42.9637C23.9888 43.4376 27.0511 43.1966 29.9328 42.2603C32.8144 41.324 35.4336 39.719 37.5761 37.5765C39.7186 35.434 41.3236 32.8148 42.2599 29.9332C43.1963 27.0515 43.4373 23.9892 42.9633 20.9965C42.4893 18.0038 41.3137 15.1659 39.5328 12.7146C37.7518 10.2633 35.416 8.26829 32.7163 6.89272C30.7316 5.88145 28.5916 5.22607 26.3934 4.94985C25.0783 4.78459 23.9997 3.72553 23.9997 2.40004Z" fill="#00118F"/>
<path d="M11.8976 44.7258C12.4271 45.035 12.9684 45.3237 13.5201 45.5915C12.2401 44.922 11.1481 43.492 11.998 42C12.848 40.508 14.4754 40.6908 15.1866 41.0582C15.0351 40.9799 14.8846 40.8996 14.7352 40.8173C13.5742 40.1779 12.079 40.4005 11.2998 41.4727C10.5205 42.5449 10.7529 44.0574 11.8976 44.7258Z" fill="white"/>
<path d="M27.5887 0.270239C27.1925 0.210312 26.7948 0.160319 26.396 0.120308C25.0771 -0.0120198 24 1.07492 24 2.40041C24 3.72589 25.0795 4.78501 26.3947 4.95032C25 4.5 24.7109 3 25 2C25.4699 0.374226 26.7835 0.162363 27.5887 0.270239Z" fill="white"/>
</svg>
