<svg width="44" height="44" viewBox="0 0 44 44" fill="none" xmlns="http://www.w3.org/2000/svg">
<mask id="mask0_5168_7963" style="mask-type:alpha" maskUnits="userSpaceOnUse" x="0" y="0" width="44" height="44">
<rect width="44" height="44" fill="#D9D9D9"/>
</mask>
<g mask="url(#mask0_5168_7963)">
<path d="M12.8947 26L11 24.1053L20.1053 15L11 5.89474L12.8947 4L22 13.1053L31.1053 4L33 5.89474L23.8947 15L33 24.1053L31.1053 26L22 16.8947L12.8947 26Z" fill="#fff"/>
</g>
<path d="M28.83 30.52C28.9634 30.5333 29.1067 30.5467 29.26 30.56C29.4134 30.5667 29.5534 30.57 29.68 30.57C29.7867 30.57 29.95 30.5667 30.17 30.56C30.39 30.5533 30.6367 30.5467 30.91 30.54C31.1834 30.5333 31.4567 30.5267 31.73 30.52C32.01 30.5133 32.26 30.5033 32.48 30.49C32.7 30.4767 32.8667 30.4667 32.98 30.46C33.1667 30.4467 33.3134 30.4333 33.42 30.42C33.5334 30.4 33.62 30.38 33.68 30.36L34.27 31.17C34.1634 31.2367 34.0534 31.3067 33.94 31.38C33.8267 31.4533 33.7167 31.53 33.61 31.61C33.4767 31.7033 33.3134 31.83 33.12 31.99C32.9267 32.1433 32.72 32.3133 32.5 32.5C32.28 32.68 32.0634 32.8567 31.85 33.03C31.6367 33.2033 31.4434 33.36 31.27 33.5C31.4567 33.44 31.6367 33.4033 31.81 33.39C31.99 33.37 32.17 33.36 32.35 33.36C32.91 33.36 33.41 33.4667 33.85 33.68C34.2967 33.8933 34.65 34.1867 34.91 34.56C35.17 34.9267 35.3 35.35 35.3 35.83C35.3 36.3567 35.1634 36.83 34.89 37.25C34.6234 37.67 34.2234 38 33.69 38.24C33.1634 38.4867 32.51 38.61 31.73 38.61C31.27 38.61 30.86 38.5433 30.5 38.41C30.1467 38.2833 29.8667 38.1033 29.66 37.87C29.46 37.63 29.36 37.35 29.36 37.03C29.36 36.77 29.43 36.5267 29.57 36.3C29.7167 36.0733 29.92 35.89 30.18 35.75C30.44 35.61 30.74 35.54 31.08 35.54C31.5334 35.54 31.9134 35.6333 32.22 35.82C32.5334 36 32.7734 36.2433 32.94 36.55C33.1067 36.8567 33.1967 37.1867 33.21 37.54L32.17 37.69C32.1567 37.31 32.0534 37 31.86 36.76C31.6667 36.52 31.4067 36.4 31.08 36.4C30.88 36.4 30.7167 36.4533 30.59 36.56C30.47 36.6667 30.41 36.79 30.41 36.93C30.41 37.13 30.51 37.29 30.71 37.41C30.9167 37.53 31.1867 37.59 31.52 37.59C32.08 37.59 32.5534 37.52 32.94 37.38C33.3334 37.24 33.63 37.0367 33.83 36.77C34.03 36.5033 34.13 36.1833 34.13 35.81C34.13 35.5033 34.0367 35.2333 33.85 35C33.6634 34.76 33.41 34.5733 33.09 34.44C32.77 34.3067 32.41 34.24 32.01 34.24C31.6167 34.24 31.2567 34.29 30.93 34.39C30.6034 34.4833 30.2967 34.6167 30.01 34.79C29.7234 34.9633 29.4434 35.1767 29.17 35.43C28.9034 35.6767 28.6267 35.9533 28.34 36.26L27.53 35.42C27.7167 35.2733 27.9267 35.1033 28.16 34.91C28.3934 34.7167 28.63 34.52 28.87 34.32C29.11 34.12 29.3367 33.93 29.55 33.75C29.7634 33.57 29.9434 33.42 30.09 33.3C30.23 33.1867 30.3967 33.05 30.59 32.89C30.7834 32.73 30.9834 32.5633 31.19 32.39C31.3967 32.2167 31.5934 32.0533 31.78 31.9C31.9667 31.74 32.12 31.6067 32.24 31.5C32.14 31.5 32.0034 31.5067 31.83 31.52C31.6567 31.5267 31.4667 31.5333 31.26 31.54C31.0534 31.5467 30.8467 31.5567 30.64 31.57C30.4334 31.5767 30.24 31.5867 30.06 31.6C29.8867 31.6067 29.7467 31.6133 29.64 31.62C29.5134 31.6267 29.38 31.6367 29.24 31.65C29.1067 31.6567 28.9834 31.67 28.87 31.69L28.83 30.52Z" fill="#fff"/>
<path d="M22.99 31.05C23.0834 31.1833 23.1867 31.3467 23.3 31.54C23.42 31.7267 23.5367 31.92 23.65 32.12C23.7634 32.32 23.86 32.4967 23.94 32.65L23.13 33.01C23.0367 32.8033 22.94 32.61 22.84 32.43C22.74 32.2433 22.64 32.0633 22.54 31.89C22.44 31.7167 22.3267 31.5467 22.2 31.38L22.99 31.05ZM24.32 30.51C24.4134 30.6367 24.52 30.7967 24.64 30.99C24.7667 31.1767 24.8867 31.3667 25 31.56C25.12 31.7533 25.2167 31.9233 25.29 32.07L24.51 32.46C24.41 32.2533 24.3067 32.0633 24.2 31.89C24.1 31.71 23.9967 31.5367 23.89 31.37C23.7834 31.1967 23.6667 31.03 23.54 30.87L24.32 30.51ZM20.36 30.24C20.3334 30.44 20.31 30.65 20.29 30.87C20.27 31.0833 20.2534 31.2867 20.24 31.48C20.2267 31.7533 20.2134 32.09 20.2 32.49C20.1867 32.8833 20.1734 33.3 20.16 33.74C20.1467 34.18 20.1334 34.6133 20.12 35.04C20.1134 35.46 20.11 35.8333 20.11 36.16C20.11 36.5 20.1734 36.7733 20.3 36.98C20.4334 37.18 20.61 37.3233 20.83 37.41C21.05 37.4967 21.2967 37.54 21.57 37.54C21.9967 37.54 22.3834 37.4833 22.73 37.37C23.0767 37.2567 23.39 37.1067 23.67 36.92C23.95 36.7267 24.2034 36.5067 24.43 36.26C24.6567 36.0133 24.86 35.7567 25.04 35.49L25.85 36.48C25.6834 36.7133 25.47 36.9633 25.21 37.23C24.9567 37.49 24.6534 37.7367 24.3 37.97C23.9467 38.1967 23.54 38.38 23.08 38.52C22.6267 38.6667 22.1167 38.74 21.55 38.74C21.03 38.74 20.57 38.66 20.17 38.5C19.7767 38.34 19.47 38.0867 19.25 37.74C19.0367 37.3867 18.93 36.93 18.93 36.37C18.93 36.0967 18.9334 35.7833 18.94 35.43C18.9467 35.07 18.9567 34.7 18.97 34.32C18.9834 33.94 18.9934 33.5667 19 33.2C19.0067 32.8333 19.0134 32.5 19.02 32.2C19.0267 31.9 19.03 31.66 19.03 31.48C19.03 31.2533 19.02 31.0333 19 30.82C18.9867 30.6067 18.9567 30.41 18.91 30.23L20.36 30.24Z" fill="#fff"/>
<path d="M9.7 34.59H14.69V35.47H9.7V34.59ZM12.34 33.79H13.31V37.71C13.31 37.9367 13.2833 38.1133 13.23 38.24C13.1767 38.3733 13.0733 38.4767 12.92 38.55C12.7667 38.6233 12.5833 38.6667 12.37 38.68C12.1633 38.7 11.91 38.71 11.61 38.71C11.59 38.5833 11.5467 38.4333 11.48 38.26C11.42 38.0933 11.3567 37.95 11.29 37.83C11.4833 37.8367 11.6633 37.84 11.83 37.84C12.0033 37.84 12.12 37.84 12.18 37.84C12.2867 37.8333 12.34 37.7833 12.34 37.69V33.79ZM12.13 35.13L12.9 35.43C12.6867 35.7833 12.4233 36.13 12.11 36.47C11.7967 36.8033 11.4633 37.11 11.11 37.39C10.7567 37.6633 10.4033 37.8933 10.05 38.08C9.97 37.9667 9.86333 37.8333 9.73 37.68C9.60333 37.5267 9.48667 37.4067 9.38 37.32C9.72667 37.1733 10.0733 36.9867 10.42 36.76C10.7667 36.5267 11.09 36.27 11.39 35.99C11.69 35.71 11.9367 35.4233 12.13 35.13ZM8.53 31.4H11.12V32.13H8.53V31.4ZM13.17 31.4H15.78V32.13H13.17V31.4ZM15.34 30H16.42V37.62C16.42 37.9333 16.38 38.1733 16.3 38.34C16.2267 38.5133 16.0933 38.6467 15.9 38.74C15.7 38.8267 15.4433 38.88 15.13 38.9C14.8167 38.9267 14.4333 38.94 13.98 38.94C13.9667 38.8333 13.94 38.7133 13.9 38.58C13.86 38.4533 13.8133 38.32 13.76 38.18C13.7133 38.0467 13.66 37.9333 13.6 37.84C13.8067 37.8533 14.01 37.86 14.21 37.86C14.41 37.86 14.59 37.86 14.75 37.86C14.91 37.86 15.02 37.86 15.08 37.86C15.1733 37.86 15.24 37.84 15.28 37.8C15.32 37.76 15.34 37.6967 15.34 37.61V30ZM8.62 30H11.79V33.57H8.62V32.79H10.79V30.78H8.62V30ZM15.9 30V30.78H13.56V32.81H15.9V33.59H12.54V30H15.9ZM8 30H9.07V38.94H8V30Z" fill="#fff"/>
</svg>
