<svg width="24" height="24" viewBox="0 0 24 24" fill="none" xmlns="http://www.w3.org/2000/svg">
<path d="M22 12.5C22 18.0228 17.5228 22.5 12 22.5C6.47715 22.5 2 18.0228 2 12.5C2 6.97715 6.47715 2.5 12 2.5C17.5228 2.5 22 6.97715 22 12.5ZM5 12.5C5 16.366 8.13401 19.5 12 19.5C15.866 19.5 19 16.366 19 12.5C19 8.63401 15.866 5.5 12 5.5C8.13401 5.5 5 8.63401 5 12.5Z" fill="#4979F5"/>
<path d="M11.9988 3.99999C11.9988 3.17156 12.6741 2.48848 13.4932 2.61228C14.5511 2.77216 15.5797 3.10127 16.5387 3.58992C17.9448 4.30637 19.1614 5.34542 20.089 6.62213C21.0166 7.89885 21.6288 9.37697 21.8757 10.9356C22.1226 12.4943 21.997 14.0893 21.5094 15.5902C21.0217 17.091 20.1858 18.4552 19.0699 19.5711C17.954 20.6869 16.5899 21.5229 15.089 22.0106C13.5881 22.4982 11.9931 22.6237 10.4345 22.3769C9.37138 22.2085 8.34576 21.8701 7.39596 21.3777C6.66051 20.9964 6.5157 20.0468 7.00264 19.3766C7.48958 18.7064 8.42427 18.5753 9.1827 18.9085C9.73047 19.1492 10.3087 19.3196 10.9038 19.4138C11.9948 19.5866 13.1113 19.4987 14.1619 19.1574C15.2125 18.816 16.1674 18.2309 16.9486 17.4497C17.7297 16.6686 18.3148 15.7137 18.6562 14.6631C18.9976 13.6125 19.0854 12.496 18.9126 11.4049C18.7398 10.3139 18.3112 9.27919 17.6619 8.38549C17.0126 7.49179 16.161 6.76445 15.1767 6.26294C14.64 5.98943 14.072 5.78733 13.4874 5.66009C12.6779 5.48392 11.9988 4.82841 11.9988 3.99999Z" fill="#00118F"/>
<path d="M7.39558 21.3764C7.91311 21.6449 8.45315 21.8677 9.00949 22.0421C8.48722 21.7255 7.58834 21.0391 8.00098 20C8.3857 19.0312 9.17463 18.9901 9.4823 19.0312C9.38164 18.9924 9.2819 18.9512 9.18314 18.9078C8.42482 18.5743 7.49009 18.7051 7.00293 19.3752C6.51577 20.0452 6.66025 20.9948 7.39558 21.3764Z" fill="white"/>
<path d="M14.7295 2.87957C14.3238 2.76448 13.9113 2.67516 13.4944 2.61215C12.6753 2.48835 12 3.17515 12 4.00358C12 4.82791 12.6756 5.48395 13.4813 5.65839C13.3541 5.47907 12.6797 4.89635 13 4C13.3203 3.10365 14.1163 2.72637 14.7295 2.87957Z" fill="white"/>
</svg>
