<?xml version="1.0" encoding="UTF-8"?><svg xmlns="http://www.w3.org/2000/svg" viewBox="0 0 20 20"><defs><style>.cls-1{fill:#fff;}</style></defs><path d="m10,18.25c-1.13,0-2.19-.22-3.2-.65s-1.89-1.02-2.64-1.77-1.34-1.62-1.77-2.62c-.43-1-.65-2.07-.65-3.21s.22-2.23.65-3.23c.43-1,1.02-1.88,1.77-2.62s1.62-1.34,2.62-1.76c1-.42,2.07-.63,3.21-.63s2.23.21,3.23.63c1,.42,1.88,1.01,2.62,1.76s1.34,1.63,1.76,2.64c.42,1.01.64,2.08.64,3.22s-.21,2.21-.64,3.21c-.42,1-1.01,1.88-1.76,2.62s-1.63,1.34-2.64,1.77c-1.01.43-2.08.65-3.22.65Z"/><path class="cls-1" d="m10,16.62c1.85,0,3.41-.64,4.7-1.93,1.28-1.28,1.93-2.85,1.93-4.7s-.64-3.41-1.93-4.7c-1.28-1.28-2.85-1.93-4.7-1.93s-3.41.64-4.7,1.93-1.93,2.85-1.93,4.7.64,3.41,1.93,4.7c1.28,1.28,2.85,1.93,4.7,1.93Z"/></svg>