<svg width="20" height="20" fill="none" xmlns="http://www.w3.org/2000/svg"><mask id="a" style="mask-type:alpha" maskUnits="userSpaceOnUse" x="0" y="0" width="24" height="24"><path fill="#D9D9D9" d="M0 0h24v24H0z"/></mask><g mask="url(#a)"><path d="M10 17.917a7.665 7.665 0 0 1-3.072-.625 8.028 8.028 0 0 1-2.52-1.7 8.03 8.03 0 0 1-1.7-2.52A7.665 7.665 0 0 1 2.084 10c0-1.094.208-2.12.624-3.08a8.05 8.05 0 0 1 1.7-2.513 8.03 8.03 0 0 1 2.52-1.7A7.664 7.664 0 0 1 10 2.084a7.65 7.65 0 0 1 3.079.625 8.05 8.05 0 0 1 2.514 1.699 8.052 8.052 0 0 1 1.7 2.514c.415.959.623 1.985.623 3.079 0 1.085-.208 2.11-.624 3.073a8.032 8.032 0 0 1-1.7 2.52 8.049 8.049 0 0 1-2.513 1.7 7.65 7.65 0 0 1-3.08.624Zm0-1.268c.426-.564.784-1.133 1.074-1.707.291-.574.528-1.2.71-1.881H8.217a10.6 10.6 0 0 0 .718 1.913c.285.574.64 1.132 1.066 1.675Zm-1.613-.23a9.034 9.034 0 0 1-.86-1.563 10.231 10.231 0 0 1-.594-1.795H4.106a6.534 6.534 0 0 0 1.771 2.181c.74.589 1.577.981 2.51 1.178Zm3.227 0a5.949 5.949 0 0 0 2.51-1.177 6.534 6.534 0 0 0 1.77-2.181h-2.826a13.08 13.08 0 0 1-.633 1.803 10.844 10.844 0 0 1-.82 1.556Zm-8.032-4.608H6.68A10.372 10.372 0 0 1 6.531 10a10.37 10.37 0 0 1 .149-1.81H3.582A6.591 6.591 0 0 0 3.334 10a6.691 6.691 0 0 0 .248 1.81Zm4.348 0h4.141a10.477 10.477 0 0 0 .15-1.811 10.473 10.473 0 0 0-.149-1.81H7.93A10.459 10.459 0 0 0 7.781 10a10.463 10.463 0 0 0 .149 1.81Zm5.391 0h3.098A6.592 6.592 0 0 0 16.667 10a6.697 6.697 0 0 0-.248-1.811H13.32c.053.31.09.614.114.911a11.425 11.425 0 0 1 0 1.8c-.024.297-.062.601-.114.91Zm-.253-4.872h2.827a6.516 6.516 0 0 0-1.759-2.181 6.136 6.136 0 0 0-2.522-1.186c.32.485.604 1.016.853 1.591.249.576.45 1.168.6 1.776Zm-4.851 0h3.567a10.708 10.708 0 0 0-.73-1.925 9.725 9.725 0 0 0-1.053-1.663 9.732 9.732 0 0 0-1.054 1.663 10.71 10.71 0 0 0-.73 1.925Zm-4.11 0h2.826c.152-.608.352-1.2.601-1.776a10.36 10.36 0 0 1 .853-1.59 6.067 6.067 0 0 0-2.526 1.189 6.604 6.604 0 0 0-1.755 2.177Z" fill="#000"/></g></svg>